<mxfile host="app.diagrams.net" modified="2023-11-16T09:30:57.719Z" agent="Mozilla/5.0 (Macintosh; Intel Mac OS X 10_15_7) AppleWebKit/537.36 (KHTML, like Gecko) Chrome/119.0.0.0 Safari/537.36" etag="LDo4y7uqircsNU43ldqa" version="22.1.2" type="github">
  <diagram name="第 1 页" id="4uwuD2hsx4K7A9ZD2CZl">
    <mxGraphModel dx="2074" dy="1111" grid="0" gridSize="10" guides="1" tooltips="1" connect="1" arrows="1" fold="1" page="1" pageScale="1" pageWidth="827" pageHeight="1169" background="#FFFFFF" math="0" shadow="0">
      <root>
        <mxCell id="0" />
        <mxCell id="1" parent="0" />
        <mxCell id="kBcE1NXxpyQuwBncW-2d-220" value="" style="rounded=0;whiteSpace=wrap;html=1;sketch=1;hachureGap=4;jiggle=2;curveFitting=1;fontFamily=Architects Daughter;fontSource=https%3A%2F%2Ffonts.googleapis.com%2Fcss%3Ffamily%3DArchitects%2BDaughter;fontSize=20;dashed=1;fillColor=#f8cecc;strokeColor=#b85450;" vertex="1" parent="1">
          <mxGeometry x="80" y="212" width="189" height="127" as="geometry" />
        </mxCell>
        <mxCell id="kBcE1NXxpyQuwBncW-2d-221" value="local-machine&lt;br&gt;" style="text;html=1;strokeColor=none;fillColor=none;align=center;verticalAlign=middle;whiteSpace=wrap;rounded=0;fontSize=20;fontFamily=Architects Daughter;" vertex="1" parent="1">
          <mxGeometry x="89" y="305" width="148" height="30" as="geometry" />
        </mxCell>
        <mxCell id="kBcE1NXxpyQuwBncW-2d-222" value="" style="rounded=0;whiteSpace=wrap;html=1;sketch=1;hachureGap=4;jiggle=2;curveFitting=1;fontFamily=Architects Daughter;fontSource=https%3A%2F%2Ffonts.googleapis.com%2Fcss%3Ffamily%3DArchitects%2BDaughter;fontSize=20;dashed=1;fillColor=#dae8fc;strokeColor=#6c8ebf;" vertex="1" parent="1">
          <mxGeometry x="823" y="206" width="293" height="265" as="geometry" />
        </mxCell>
        <mxCell id="kBcE1NXxpyQuwBncW-2d-223" value="k8s 集群" style="text;html=1;strokeColor=none;fillColor=none;align=center;verticalAlign=middle;whiteSpace=wrap;rounded=0;fontSize=20;fontFamily=Architects Daughter;" vertex="1" parent="1">
          <mxGeometry x="927" y="423" width="148" height="30" as="geometry" />
        </mxCell>
        <mxCell id="kBcE1NXxpyQuwBncW-2d-225" value="matrix-api" style="ellipse;whiteSpace=wrap;html=1;sketch=1;hachureGap=4;jiggle=2;curveFitting=1;fontFamily=Architects Daughter;fontSource=https%3A%2F%2Ffonts.googleapis.com%2Fcss%3Ffamily%3DArchitects%2BDaughter;fontSize=20;fillColor=#fff2cc;strokeColor=#d6b656;" vertex="1" parent="1">
          <mxGeometry x="431" y="204" width="244" height="173" as="geometry" />
        </mxCell>
        <mxCell id="kBcE1NXxpyQuwBncW-2d-227" value="&lt;br&gt;&lt;br&gt;&lt;br&gt;&lt;br&gt;master" style="rounded=0;whiteSpace=wrap;html=1;sketch=1;hachureGap=4;jiggle=2;curveFitting=1;fontFamily=Architects Daughter;fontSource=https%3A%2F%2Ffonts.googleapis.com%2Fcss%3Ffamily%3DArchitects%2BDaughter;fontSize=20;" vertex="1" parent="1">
          <mxGeometry x="827" y="212" width="131" height="145" as="geometry" />
        </mxCell>
        <mxCell id="kBcE1NXxpyQuwBncW-2d-228" value="&lt;br&gt;&lt;br&gt;&lt;br&gt;&lt;br&gt;node" style="rounded=0;whiteSpace=wrap;html=1;sketch=1;hachureGap=4;jiggle=2;curveFitting=1;fontFamily=Architects Daughter;fontSource=https%3A%2F%2Ffonts.googleapis.com%2Fcss%3Ffamily%3DArchitects%2BDaughter;fontSize=20;" vertex="1" parent="1">
          <mxGeometry x="972" y="212" width="131" height="145" as="geometry" />
        </mxCell>
        <mxCell id="kBcE1NXxpyQuwBncW-2d-232" style="edgeStyle=orthogonalEdgeStyle;rounded=0;sketch=1;hachureGap=4;jiggle=2;curveFitting=1;orthogonalLoop=1;jettySize=auto;html=1;fontFamily=Architects Daughter;fontSource=https%3A%2F%2Ffonts.googleapis.com%2Fcss%3Ffamily%3DArchitects%2BDaughter;fontSize=16;" edge="1" parent="1" source="kBcE1NXxpyQuwBncW-2d-229" target="kBcE1NXxpyQuwBncW-2d-225">
          <mxGeometry relative="1" as="geometry" />
        </mxCell>
        <mxCell id="kBcE1NXxpyQuwBncW-2d-229" value="matrix-agent" style="rounded=0;whiteSpace=wrap;html=1;sketch=1;hachureGap=4;jiggle=2;curveFitting=1;fontFamily=Architects Daughter;fontSource=https%3A%2F%2Ffonts.googleapis.com%2Fcss%3Ffamily%3DArchitects%2BDaughter;fontSize=20;fillColor=#e1d5e7;strokeColor=#9673a6;" vertex="1" parent="1">
          <mxGeometry x="85" y="219" width="156" height="38" as="geometry" />
        </mxCell>
        <mxCell id="kBcE1NXxpyQuwBncW-2d-233" style="edgeStyle=orthogonalEdgeStyle;rounded=0;sketch=1;hachureGap=4;jiggle=2;curveFitting=1;orthogonalLoop=1;jettySize=auto;html=1;entryX=0.5;entryY=0;entryDx=0;entryDy=0;fontFamily=Architects Daughter;fontSource=https%3A%2F%2Ffonts.googleapis.com%2Fcss%3Ffamily%3DArchitects%2BDaughter;fontSize=16;" edge="1" parent="1" source="kBcE1NXxpyQuwBncW-2d-230" target="kBcE1NXxpyQuwBncW-2d-225">
          <mxGeometry relative="1" as="geometry" />
        </mxCell>
        <mxCell id="kBcE1NXxpyQuwBncW-2d-230" value="matrix-agent" style="rounded=0;whiteSpace=wrap;html=1;sketch=1;hachureGap=4;jiggle=2;curveFitting=1;fontFamily=Architects Daughter;fontSource=https%3A%2F%2Ffonts.googleapis.com%2Fcss%3Ffamily%3DArchitects%2BDaughter;fontSize=20;fillColor=#e1d5e7;strokeColor=#9673a6;" vertex="1" parent="1">
          <mxGeometry x="832" y="224" width="111" height="59" as="geometry" />
        </mxCell>
        <mxCell id="kBcE1NXxpyQuwBncW-2d-235" style="edgeStyle=orthogonalEdgeStyle;rounded=0;sketch=1;hachureGap=4;jiggle=2;curveFitting=1;orthogonalLoop=1;jettySize=auto;html=1;fontFamily=Architects Daughter;fontSource=https%3A%2F%2Ffonts.googleapis.com%2Fcss%3Ffamily%3DArchitects%2BDaughter;fontSize=16;" edge="1" parent="1" source="kBcE1NXxpyQuwBncW-2d-231">
          <mxGeometry relative="1" as="geometry">
            <mxPoint x="554" y="196" as="targetPoint" />
            <Array as="points">
              <mxPoint x="1038" y="101" />
              <mxPoint x="555" y="101" />
            </Array>
          </mxGeometry>
        </mxCell>
        <mxCell id="kBcE1NXxpyQuwBncW-2d-231" value="matrix-agent" style="rounded=0;whiteSpace=wrap;html=1;sketch=1;hachureGap=4;jiggle=2;curveFitting=1;fontFamily=Architects Daughter;fontSource=https%3A%2F%2Ffonts.googleapis.com%2Fcss%3Ffamily%3DArchitects%2BDaughter;fontSize=20;fillColor=#e1d5e7;strokeColor=#9673a6;" vertex="1" parent="1">
          <mxGeometry x="982" y="217" width="111" height="59" as="geometry" />
        </mxCell>
        <mxCell id="kBcE1NXxpyQuwBncW-2d-238" style="edgeStyle=orthogonalEdgeStyle;rounded=0;sketch=1;hachureGap=4;jiggle=2;curveFitting=1;orthogonalLoop=1;jettySize=auto;html=1;fontFamily=Architects Daughter;fontSource=https%3A%2F%2Ffonts.googleapis.com%2Fcss%3Ffamily%3DArchitects%2BDaughter;fontSize=16;" edge="1" parent="1" source="kBcE1NXxpyQuwBncW-2d-236">
          <mxGeometry relative="1" as="geometry">
            <mxPoint x="471" y="717.3478260869567" as="targetPoint" />
          </mxGeometry>
        </mxCell>
        <mxCell id="kBcE1NXxpyQuwBncW-2d-236" value="agent 部署" style="rounded=0;whiteSpace=wrap;html=1;sketch=1;hachureGap=4;jiggle=2;curveFitting=1;fontFamily=Architects Daughter;fontSource=https%3A%2F%2Ffonts.googleapis.com%2Fcss%3Ffamily%3DArchitects%2BDaughter;fontSize=20;" vertex="1" parent="1">
          <mxGeometry x="411" y="585" width="120" height="60" as="geometry" />
        </mxCell>
        <mxCell id="kBcE1NXxpyQuwBncW-2d-237" value="agent 注册流程" style="text;html=1;strokeColor=none;fillColor=none;align=center;verticalAlign=middle;whiteSpace=wrap;rounded=0;fontSize=20;fontFamily=Architects Daughter;" vertex="1" parent="1">
          <mxGeometry y="592" width="189" height="30" as="geometry" />
        </mxCell>
        <mxCell id="kBcE1NXxpyQuwBncW-2d-242" value="" style="edgeStyle=orthogonalEdgeStyle;rounded=0;sketch=1;hachureGap=4;jiggle=2;curveFitting=1;orthogonalLoop=1;jettySize=auto;html=1;fontFamily=Architects Daughter;fontSource=https%3A%2F%2Ffonts.googleapis.com%2Fcss%3Ffamily%3DArchitects%2BDaughter;fontSize=16;" edge="1" parent="1" source="kBcE1NXxpyQuwBncW-2d-239">
          <mxGeometry relative="1" as="geometry">
            <mxPoint x="305" y="865" as="targetPoint" />
          </mxGeometry>
        </mxCell>
        <mxCell id="kBcE1NXxpyQuwBncW-2d-247" style="edgeStyle=orthogonalEdgeStyle;rounded=0;sketch=1;hachureGap=4;jiggle=2;curveFitting=1;orthogonalLoop=1;jettySize=auto;html=1;fontFamily=Architects Daughter;fontSource=https%3A%2F%2Ffonts.googleapis.com%2Fcss%3Ffamily%3DArchitects%2BDaughter;fontSize=16;entryX=0.5;entryY=0;entryDx=0;entryDy=0;" edge="1" parent="1" source="kBcE1NXxpyQuwBncW-2d-239" target="kBcE1NXxpyQuwBncW-2d-262">
          <mxGeometry relative="1" as="geometry">
            <mxPoint x="685" y="732" as="targetPoint" />
          </mxGeometry>
        </mxCell>
        <mxCell id="kBcE1NXxpyQuwBncW-2d-239" value="&lt;font style=&quot;font-size: 10px;&quot;&gt;主机/K8S 部署&lt;/font&gt;" style="rhombus;whiteSpace=wrap;html=1;sketch=1;hachureGap=4;jiggle=2;curveFitting=1;fontFamily=Architects Daughter;fontSource=https%3A%2F%2Ffonts.googleapis.com%2Fcss%3Ffamily%3DArchitects%2BDaughter;fontSize=20;" vertex="1" parent="1">
          <mxGeometry x="428" y="718" width="80" height="80" as="geometry" />
        </mxCell>
        <mxCell id="kBcE1NXxpyQuwBncW-2d-245" value="&lt;span style=&quot;font-size: 13px;&quot;&gt;主机部署&lt;/span&gt;" style="text;strokeColor=none;align=center;fillColor=none;html=1;verticalAlign=middle;whiteSpace=wrap;rounded=0;fontSize=20;fontFamily=Architects Daughter;" vertex="1" parent="1">
          <mxGeometry x="371" y="730" width="60" height="30" as="geometry" />
        </mxCell>
        <mxCell id="kBcE1NXxpyQuwBncW-2d-246" value="&lt;span style=&quot;font-size: 13px;&quot;&gt;k8s 部署&lt;/span&gt;" style="text;strokeColor=none;align=center;fillColor=none;html=1;verticalAlign=middle;whiteSpace=wrap;rounded=0;fontSize=20;fontFamily=Architects Daughter;" vertex="1" parent="1">
          <mxGeometry x="556" y="724" width="60" height="36" as="geometry" />
        </mxCell>
        <mxCell id="kBcE1NXxpyQuwBncW-2d-271" style="edgeStyle=orthogonalEdgeStyle;rounded=0;sketch=1;hachureGap=4;jiggle=2;curveFitting=1;orthogonalLoop=1;jettySize=auto;html=1;fontFamily=Architects Daughter;fontSource=https%3A%2F%2Ffonts.googleapis.com%2Fcss%3Ffamily%3DArchitects%2BDaughter;fontSize=16;" edge="1" parent="1" source="kBcE1NXxpyQuwBncW-2d-251" target="kBcE1NXxpyQuwBncW-2d-270">
          <mxGeometry relative="1" as="geometry" />
        </mxCell>
        <mxCell id="kBcE1NXxpyQuwBncW-2d-251" value="&lt;font style=&quot;font-size: 13px;&quot;&gt;生成 tenant_id 以及 node_code&amp;nbsp;&lt;/font&gt;" style="whiteSpace=wrap;html=1;sketch=1;hachureGap=4;jiggle=2;curveFitting=1;fontFamily=Architects Daughter;fontSource=https%3A%2F%2Ffonts.googleapis.com%2Fcss%3Ffamily%3DArchitects%2BDaughter;fontSize=20;" vertex="1" parent="1">
          <mxGeometry x="248" y="859" width="123" height="70" as="geometry" />
        </mxCell>
        <mxCell id="kBcE1NXxpyQuwBncW-2d-253" value="matrix-api" style="whiteSpace=wrap;html=1;sketch=1;hachureGap=4;jiggle=2;curveFitting=1;fontFamily=Architects Daughter;fontSource=https%3A%2F%2Ffonts.googleapis.com%2Fcss%3Ffamily%3DArchitects%2BDaughter;fontSize=20;" vertex="1" parent="1">
          <mxGeometry x="414" y="1113" width="120" height="48" as="geometry" />
        </mxCell>
        <mxCell id="kBcE1NXxpyQuwBncW-2d-261" value="&lt;font style=&quot;font-size: 13px;&quot;&gt;调用注册接口&lt;/font&gt;" style="text;html=1;align=center;verticalAlign=middle;resizable=0;points=[];autosize=1;strokeColor=none;fillColor=none;fontSize=20;fontFamily=Architects Daughter;" vertex="1" parent="1">
          <mxGeometry x="443" y="968" width="96" height="36" as="geometry" />
        </mxCell>
        <mxCell id="kBcE1NXxpyQuwBncW-2d-269" style="edgeStyle=orthogonalEdgeStyle;rounded=0;sketch=1;hachureGap=4;jiggle=2;curveFitting=1;orthogonalLoop=1;jettySize=auto;html=1;fontFamily=Architects Daughter;fontSource=https%3A%2F%2Ffonts.googleapis.com%2Fcss%3Ffamily%3DArchitects%2BDaughter;fontSize=16;" edge="1" parent="1" source="kBcE1NXxpyQuwBncW-2d-262" target="kBcE1NXxpyQuwBncW-2d-268">
          <mxGeometry relative="1" as="geometry" />
        </mxCell>
        <mxCell id="kBcE1NXxpyQuwBncW-2d-262" value="&lt;font style=&quot;font-size: 13px;&quot;&gt;生成集群唯一ID,集群名称，tenant_ID&lt;/font&gt;" style="whiteSpace=wrap;html=1;sketch=1;hachureGap=4;jiggle=2;curveFitting=1;fontFamily=Architects Daughter;fontSource=https%3A%2F%2Ffonts.googleapis.com%2Fcss%3Ffamily%3DArchitects%2BDaughter;fontSize=20;" vertex="1" parent="1">
          <mxGeometry x="575" y="855" width="154" height="64" as="geometry" />
        </mxCell>
        <mxCell id="kBcE1NXxpyQuwBncW-2d-277" style="edgeStyle=orthogonalEdgeStyle;rounded=0;sketch=1;hachureGap=4;jiggle=2;curveFitting=1;orthogonalLoop=1;jettySize=auto;html=1;entryX=0.5;entryY=0;entryDx=0;entryDy=0;fontFamily=Architects Daughter;fontSource=https%3A%2F%2Ffonts.googleapis.com%2Fcss%3Ffamily%3DArchitects%2BDaughter;fontSize=16;" edge="1" parent="1" source="kBcE1NXxpyQuwBncW-2d-268" target="kBcE1NXxpyQuwBncW-2d-253">
          <mxGeometry relative="1" as="geometry" />
        </mxCell>
        <mxCell id="kBcE1NXxpyQuwBncW-2d-268" value="&lt;font style=&quot;font-size: 13px;&quot;&gt;获取集群基本信息&lt;/font&gt;" style="whiteSpace=wrap;html=1;sketch=1;hachureGap=4;jiggle=2;curveFitting=1;fontFamily=Architects Daughter;fontSource=https%3A%2F%2Ffonts.googleapis.com%2Fcss%3Ffamily%3DArchitects%2BDaughter;fontSize=20;" vertex="1" parent="1">
          <mxGeometry x="596" y="992" width="115.5" height="60" as="geometry" />
        </mxCell>
        <mxCell id="kBcE1NXxpyQuwBncW-2d-274" style="edgeStyle=orthogonalEdgeStyle;rounded=0;sketch=1;hachureGap=4;jiggle=2;curveFitting=1;orthogonalLoop=1;jettySize=auto;html=1;entryX=0.5;entryY=0;entryDx=0;entryDy=0;fontFamily=Architects Daughter;fontSource=https%3A%2F%2Ffonts.googleapis.com%2Fcss%3Ffamily%3DArchitects%2BDaughter;fontSize=16;" edge="1" parent="1" source="kBcE1NXxpyQuwBncW-2d-270" target="kBcE1NXxpyQuwBncW-2d-253">
          <mxGeometry relative="1" as="geometry" />
        </mxCell>
        <mxCell id="kBcE1NXxpyQuwBncW-2d-270" value="&lt;span style=&quot;font-size: 13px;&quot;&gt;获取主机基础信息&lt;/span&gt;" style="whiteSpace=wrap;html=1;sketch=1;hachureGap=4;jiggle=2;curveFitting=1;fontFamily=Architects Daughter;fontSource=https%3A%2F%2Ffonts.googleapis.com%2Fcss%3Ffamily%3DArchitects%2BDaughter;fontSize=20;" vertex="1" parent="1">
          <mxGeometry x="249.5" y="987" width="120" height="60" as="geometry" />
        </mxCell>
        <mxCell id="kBcE1NXxpyQuwBncW-2d-292" style="edgeStyle=orthogonalEdgeStyle;rounded=0;sketch=1;hachureGap=4;jiggle=2;curveFitting=1;orthogonalLoop=1;jettySize=auto;html=1;entryX=0.5;entryY=0;entryDx=0;entryDy=0;fontFamily=Architects Daughter;fontSource=https%3A%2F%2Ffonts.googleapis.com%2Fcss%3Ffamily%3DArchitects%2BDaughter;fontSize=16;" edge="1" parent="1" source="kBcE1NXxpyQuwBncW-2d-278" target="kBcE1NXxpyQuwBncW-2d-290">
          <mxGeometry relative="1" as="geometry" />
        </mxCell>
        <mxCell id="kBcE1NXxpyQuwBncW-2d-294" style="edgeStyle=orthogonalEdgeStyle;rounded=0;sketch=1;hachureGap=4;jiggle=2;curveFitting=1;orthogonalLoop=1;jettySize=auto;html=1;entryX=0.5;entryY=0;entryDx=0;entryDy=0;fontFamily=Architects Daughter;fontSource=https%3A%2F%2Ffonts.googleapis.com%2Fcss%3Ffamily%3DArchitects%2BDaughter;fontSize=16;" edge="1" parent="1" source="kBcE1NXxpyQuwBncW-2d-278" target="kBcE1NXxpyQuwBncW-2d-293">
          <mxGeometry relative="1" as="geometry" />
        </mxCell>
        <mxCell id="kBcE1NXxpyQuwBncW-2d-278" value="&lt;font style=&quot;font-size: 13px;&quot;&gt;主机/K8s&lt;/font&gt;" style="rhombus;whiteSpace=wrap;html=1;sketch=1;hachureGap=4;jiggle=2;curveFitting=1;fontFamily=Architects Daughter;fontSource=https%3A%2F%2Ffonts.googleapis.com%2Fcss%3Ffamily%3DArchitects%2BDaughter;fontSize=20;" vertex="1" parent="1">
          <mxGeometry x="431" y="1220" width="80" height="80" as="geometry" />
        </mxCell>
        <mxCell id="kBcE1NXxpyQuwBncW-2d-279" style="edgeStyle=orthogonalEdgeStyle;rounded=0;sketch=1;hachureGap=4;jiggle=2;curveFitting=1;orthogonalLoop=1;jettySize=auto;html=1;entryX=0.538;entryY=0.088;entryDx=0;entryDy=0;entryPerimeter=0;fontFamily=Architects Daughter;fontSource=https%3A%2F%2Ffonts.googleapis.com%2Fcss%3Ffamily%3DArchitects%2BDaughter;fontSize=16;" edge="1" parent="1" source="kBcE1NXxpyQuwBncW-2d-253" target="kBcE1NXxpyQuwBncW-2d-278">
          <mxGeometry relative="1" as="geometry" />
        </mxCell>
        <mxCell id="kBcE1NXxpyQuwBncW-2d-281" value="" style="endArrow=none;dashed=1;html=1;dashPattern=1 3;strokeWidth=2;rounded=0;sketch=1;hachureGap=4;jiggle=2;curveFitting=1;fontFamily=Architects Daughter;fontSource=https%3A%2F%2Ffonts.googleapis.com%2Fcss%3Ffamily%3DArchitects%2BDaughter;fontSize=16;" edge="1" parent="1">
          <mxGeometry width="50" height="50" relative="1" as="geometry">
            <mxPoint x="40" y="1067" as="sourcePoint" />
            <mxPoint x="935" y="1067" as="targetPoint" />
          </mxGeometry>
        </mxCell>
        <mxCell id="kBcE1NXxpyQuwBncW-2d-282" value="Agent 端" style="text;html=1;align=center;verticalAlign=middle;resizable=0;points=[];autosize=1;strokeColor=none;fillColor=none;fontSize=20;fontFamily=Architects Daughter;" vertex="1" parent="1">
          <mxGeometry x="11" y="868" width="98" height="36" as="geometry" />
        </mxCell>
        <mxCell id="kBcE1NXxpyQuwBncW-2d-283" value="服务端" style="text;html=1;align=center;verticalAlign=middle;resizable=0;points=[];autosize=1;strokeColor=none;fillColor=none;fontSize=20;fontFamily=Architects Daughter;" vertex="1" parent="1">
          <mxGeometry x="18" y="1107" width="78" height="36" as="geometry" />
        </mxCell>
        <mxCell id="kBcE1NXxpyQuwBncW-2d-284" value="" style="endArrow=none;dashed=1;html=1;dashPattern=1 3;strokeWidth=2;rounded=0;sketch=1;hachureGap=4;jiggle=2;curveFitting=1;fontFamily=Architects Daughter;fontSource=https%3A%2F%2Ffonts.googleapis.com%2Fcss%3Ffamily%3DArchitects%2BDaughter;fontSize=16;" edge="1" parent="1">
          <mxGeometry width="50" height="50" relative="1" as="geometry">
            <mxPoint x="32" y="1366" as="sourcePoint" />
            <mxPoint x="927" y="1366" as="targetPoint" />
          </mxGeometry>
        </mxCell>
        <mxCell id="kBcE1NXxpyQuwBncW-2d-285" value="数据库" style="text;html=1;align=center;verticalAlign=middle;resizable=0;points=[];autosize=1;strokeColor=none;fillColor=none;fontSize=20;fontFamily=Architects Daughter;" vertex="1" parent="1">
          <mxGeometry x="25" y="1426" width="78" height="36" as="geometry" />
        </mxCell>
        <mxCell id="kBcE1NXxpyQuwBncW-2d-288" value="&lt;font style=&quot;font-size: 13px;&quot;&gt;主机表，agent 表&lt;/font&gt;" style="shape=process;whiteSpace=wrap;html=1;backgroundOutline=1;sketch=1;hachureGap=4;jiggle=2;curveFitting=1;fontFamily=Architects Daughter;fontSource=https%3A%2F%2Ffonts.googleapis.com%2Fcss%3Ffamily%3DArchitects%2BDaughter;fontSize=20;" vertex="1" parent="1">
          <mxGeometry x="244" y="1468" width="120" height="60" as="geometry" />
        </mxCell>
        <mxCell id="kBcE1NXxpyQuwBncW-2d-289" value="&lt;font style=&quot;font-size: 12px;&quot;&gt;集群&lt;/font&gt;&lt;font style=&quot;font-size: 13px;&quot;&gt;表，agent 表&lt;/font&gt;" style="shape=process;whiteSpace=wrap;html=1;backgroundOutline=1;sketch=1;hachureGap=4;jiggle=2;curveFitting=1;fontFamily=Architects Daughter;fontSource=https%3A%2F%2Ffonts.googleapis.com%2Fcss%3Ffamily%3DArchitects%2BDaughter;fontSize=20;" vertex="1" parent="1">
          <mxGeometry x="698" y="1462" width="120" height="60" as="geometry" />
        </mxCell>
        <mxCell id="kBcE1NXxpyQuwBncW-2d-290" value="&lt;font style=&quot;font-size: 13px;&quot;&gt;处理主机注册信息&lt;/font&gt;" style="whiteSpace=wrap;html=1;sketch=1;hachureGap=4;jiggle=2;curveFitting=1;fontFamily=Architects Daughter;fontSource=https%3A%2F%2Ffonts.googleapis.com%2Fcss%3Ffamily%3DArchitects%2BDaughter;fontSize=20;" vertex="1" parent="1">
          <mxGeometry x="237" y="1287" width="120" height="47" as="geometry" />
        </mxCell>
        <mxCell id="kBcE1NXxpyQuwBncW-2d-293" value="&lt;span style=&quot;font-size: 13px;&quot;&gt;处理 k8s 集群注册信息&lt;/span&gt;" style="whiteSpace=wrap;html=1;sketch=1;hachureGap=4;jiggle=2;curveFitting=1;fontFamily=Architects Daughter;fontSource=https%3A%2F%2Ffonts.googleapis.com%2Fcss%3Ffamily%3DArchitects%2BDaughter;fontSize=20;" vertex="1" parent="1">
          <mxGeometry x="693" y="1291" width="120" height="60" as="geometry" />
        </mxCell>
        <mxCell id="kBcE1NXxpyQuwBncW-2d-295" style="edgeStyle=orthogonalEdgeStyle;rounded=0;sketch=1;hachureGap=4;jiggle=2;curveFitting=1;orthogonalLoop=1;jettySize=auto;html=1;entryX=0.442;entryY=0;entryDx=0;entryDy=0;entryPerimeter=0;fontFamily=Architects Daughter;fontSource=https%3A%2F%2Ffonts.googleapis.com%2Fcss%3Ffamily%3DArchitects%2BDaughter;fontSize=16;" edge="1" parent="1" source="kBcE1NXxpyQuwBncW-2d-290" target="kBcE1NXxpyQuwBncW-2d-288">
          <mxGeometry relative="1" as="geometry" />
        </mxCell>
        <mxCell id="kBcE1NXxpyQuwBncW-2d-296" style="edgeStyle=orthogonalEdgeStyle;rounded=0;sketch=1;hachureGap=4;jiggle=2;curveFitting=1;orthogonalLoop=1;jettySize=auto;html=1;entryX=0.45;entryY=0;entryDx=0;entryDy=0;entryPerimeter=0;fontFamily=Architects Daughter;fontSource=https%3A%2F%2Ffonts.googleapis.com%2Fcss%3Ffamily%3DArchitects%2BDaughter;fontSize=16;" edge="1" parent="1" source="kBcE1NXxpyQuwBncW-2d-293" target="kBcE1NXxpyQuwBncW-2d-289">
          <mxGeometry relative="1" as="geometry" />
        </mxCell>
        <mxCell id="kBcE1NXxpyQuwBncW-2d-297" value="&lt;font style=&quot;font-size: 13px;&quot;&gt;写入数据库&lt;/font&gt;" style="text;html=1;align=center;verticalAlign=middle;resizable=0;points=[];autosize=1;strokeColor=none;fillColor=none;fontSize=20;fontFamily=Architects Daughter;" vertex="1" parent="1">
          <mxGeometry x="300" y="1393" width="83" height="36" as="geometry" />
        </mxCell>
        <mxCell id="kBcE1NXxpyQuwBncW-2d-298" value="&lt;font style=&quot;font-size: 13px;&quot;&gt;写入数据库&lt;/font&gt;" style="text;html=1;align=center;verticalAlign=middle;resizable=0;points=[];autosize=1;strokeColor=none;fillColor=none;fontSize=20;fontFamily=Architects Daughter;" vertex="1" parent="1">
          <mxGeometry x="760" y="1390" width="83" height="36" as="geometry" />
        </mxCell>
        <mxCell id="kBcE1NXxpyQuwBncW-2d-300" value="&lt;span style=&quot;font-size: 13px;&quot;&gt;create or update&lt;/span&gt;" style="text;html=1;align=center;verticalAlign=middle;resizable=0;points=[];autosize=1;strokeColor=none;fillColor=none;fontSize=20;fontFamily=Architects Daughter;" vertex="1" parent="1">
          <mxGeometry x="616" y="1390" width="124" height="36" as="geometry" />
        </mxCell>
        <mxCell id="kBcE1NXxpyQuwBncW-2d-301" value="&lt;span style=&quot;font-size: 13px;&quot;&gt;create or update&lt;/span&gt;" style="text;html=1;align=center;verticalAlign=middle;resizable=0;points=[];autosize=1;strokeColor=none;fillColor=none;fontSize=20;fontFamily=Architects Daughter;" vertex="1" parent="1">
          <mxGeometry x="161" y="1390" width="124" height="36" as="geometry" />
        </mxCell>
      </root>
    </mxGraphModel>
  </diagram>
</mxfile>
